<?xml version="1.0" encoding="UTF-8"?>
<svg id="Layer_2" data-name="Layer 2" xmlns="http://www.w3.org/2000/svg" viewBox="0 0 1456.93 270.49">
  <defs>
    <style>
      .cls-1 {
        fill: #5347ef;
      }

      .cls-1, .cls-2, .cls-3, .cls-4 {
        stroke-width: 0px;
      }

      .cls-2 {
        fill: #00cbf9;
      }

      .cls-3 {
        fill: #f2f2f2;
      }

      .cls-4 {
        fill: #3df4ce;
      }
    </style>
  </defs>
  <g id="Layer_1-2" data-name="Layer 1">
    <g>
      <g>
        <path class="cls-3" d="M489.47,229.32h-57.38l-71.06-152.04v152.04h-32.71V46.98h57.38l70.79,151.77V46.98h32.98v182.34Z"/>
        <path class="cls-3" d="M639.59,167.38h-95.99c.36,14.48,3.98,25.21,10.86,32.18,6.88,6.97,18.1,10.46,33.65,10.46,8.76,0,17.52-1.38,26.28-4.16,8.76-2.77,14.84-5.4,18.23-7.91v24.13c-3.58,2.14-10.86,4.42-21.85,6.84-10.99,2.41-22.93,3.62-35.8,3.62-25.57,0-43.44-6.12-53.63-18.37-10.19-12.24-15.28-31.24-15.28-56.98,0-21.81,5.99-38.65,17.96-50.54,11.97-11.89,28.42-17.83,49.34-17.83s36.96,6.03,48.67,18.1c11.71,12.07,17.56,28.82,17.56,50.28v10.19ZM603.39,147.54c-.36-11.44-3.08-20.51-8.18-27.22-5.1-6.7-12.38-10.06-21.85-10.06-19.31,0-29.23,12.43-29.76,37.27h59.8Z"/>
        <path class="cls-3" d="M787.07,229.32h-42.9l-32.45-55.24-32.18,55.24h-40.76l48.8-71.33-45.05-65.96h41.83l30.3,48,28.42-48h39.95l-45.05,64.62,49.07,72.67Z"/>
        <path class="cls-3" d="M1035.85,92.03l-42.9,137.29h-46.66l-32.18-113.96-30.57,113.96h-46.66l-42.9-137.29h38.61l30.03,112.08,30.57-112.08h44.78l32.71,112.08,27.62-112.08h37.54Z"/>
        <path class="cls-3" d="M1171.85,223.42c-5.01,1.97-13.86,3.98-26.55,6.03-12.69,2.05-27.71,3.08-45.05,3.08-42.73,0-64.09-14.92-64.09-44.78,0-14.3,6.39-25.34,19.17-33.11,12.78-7.78,28.73-11.66,47.86-11.66h31.91v-8.58c0-15.55-12.87-23.33-38.61-23.33-13.94,0-30.3,3.67-49.07,10.99v-23.06c.36,0,2.15-.49,5.36-1.48,3.22-.98,6.52-1.88,9.92-2.68,3.39-.8,7.46-1.7,12.2-2.68,4.73-.98,9.88-1.79,15.42-2.41,5.54-.62,10.99-.94,16.36-.94,22.7,0,39.24,3.67,49.61,10.99,10.37,7.33,15.55,19.4,15.55,36.2v87.41ZM1135.11,207.06v-44.78h-19.57c-13.94,0-24.4,1.88-31.37,5.63-6.97,3.76-10.46,10.19-10.46,19.31,0,7.87,2.68,13.86,8.04,17.97,5.36,4.11,12.51,6.17,21.45,6.17,13.76,0,24.4-1.43,31.91-4.29Z"/>
        <path class="cls-3" d="M1322.01,92.03l-47.19,137.29h-50.14l-47.19-137.29h39.15l34.05,112.62,33.52-112.62h37.81Z"/>
        <path class="cls-3" d="M1456.93,167.38h-95.99c.35,14.48,3.98,25.21,10.86,32.18,6.88,6.97,18.1,10.46,33.65,10.46,8.76,0,17.52-1.38,26.28-4.16,8.76-2.77,14.84-5.4,18.23-7.91v24.13c-3.58,2.14-10.86,4.42-21.85,6.84-10.99,2.41-22.93,3.62-35.8,3.62-25.57,0-43.44-6.12-53.63-18.37-10.19-12.24-15.29-31.24-15.29-56.98,0-21.81,5.99-38.65,17.97-50.54,11.97-11.89,28.42-17.83,49.34-17.83s36.96,6.03,48.67,18.1c11.71,12.07,17.56,28.82,17.56,50.28v10.19ZM1420.73,147.54c-.36-11.44-3.08-20.51-8.18-27.22-5.1-6.7-12.38-10.06-21.85-10.06-19.31,0-29.23,12.43-29.76,37.27h59.8Z"/>
      </g>
      <g>
        <path class="cls-4" d="M152.19,121.24V33.51S107.02,4.2,107.02,4.2c-18.35-11.93-41.26,2.98-41.26,26.79v34.19s86.43,56.05,86.43,56.05Z"/>
        <path class="cls-4" d="M197.32,239.48v-34.14s-83.72-53.92-83.72-53.92v87.82s42.42,27.08,42.42,27.08c18.35,11.88,41.3-2.98,41.3-26.84Z"/>
        <polygon class="cls-2" points="113.6 151.42 197.32 205.33 197.32 62.75 152.19 33.51 152.19 121.24 65.76 65.18 65.76 207.77 113.6 239.24 113.6 151.42"/>
        <path class="cls-1" d="M263.08,188.69V0s-110.9,0-110.9,0v33.51s45.14,29.23,45.14,29.23v142.59s20.08,13.02,20.08,13.02c20.3,13.12,45.68-3.33,45.68-29.67Z"/>
        <path class="cls-1" d="M113.6,270.49v-31.26s-47.84-31.47-47.84-31.47V65.18s-20.12-13.02-20.12-13.02C25.34,38.99,0,55.44,0,81.78v188.71s113.6,0,113.6,0Z"/>
      </g>
    </g>
  </g>
</svg>
